<svg xmlns="http://www.w3.org/2000/svg" version="1.1" xmlns:xlink="http://www.w3.org/1999/xlink" xmlns:svgjs="http://svgjs.com/svgjs" width="1440" height="560" preserveAspectRatio="none" viewBox="0 0 1440 560"><g mask="url(&quot;#SvgjsMask1349&quot;)" fill="none"><rect width="1440" height="560" x="0" y="0" fill="url(#SvgjsLinearGradient1350)"></rect><path d="M103.09 107.82L168.05 145.32L168.05 220.32L103.09 257.82L38.14 220.32L38.14 145.32zM38.14 445.32L103.09 482.82L103.09 557.82L38.14 595.32L-26.81 557.82L-26.81 482.82zM168.05 -4.68L233 32.82L233 107.82L168.05 145.32L103.09 107.82L103.09 32.82zM233 107.82L297.95 145.32L297.95 220.32L233 257.82L168.05 220.32L168.05 145.32zM168.05 220.32L233 257.82L233 332.82L168.05 370.32L103.09 332.82L103.09 257.82zM362.91 557.82L427.86 595.32L427.86 670.32L362.91 707.82L297.95 670.32L297.95 595.32zM427.86 -4.68L492.82 32.82L492.82 107.82L427.86 145.32L362.91 107.82L362.91 32.82zM492.82 332.82L557.77 370.32L557.77 445.32L492.82 482.82L427.86 445.32L427.86 370.32zM622.72 107.82L687.68 145.32L687.68 220.32L622.72 257.82L557.77 220.32L557.77 145.32zM622.72 332.82L687.68 370.32L687.68 445.32L622.72 482.82L557.77 445.32L557.77 370.32zM622.72 557.82L687.68 595.32L687.68 670.32L622.72 707.82L557.77 670.32L557.77 595.32zM687.68 -4.68L752.63 32.82L752.63 107.82L687.68 145.32L622.72 107.82L622.72 32.82zM687.68 220.32L752.63 257.82L752.63 332.82L687.68 370.32L622.72 332.82L622.72 257.82zM752.63 332.82L817.59 370.32L817.59 445.32L752.63 482.82L687.68 445.32L687.68 370.32zM687.68 445.32L752.63 482.82L752.63 557.82L687.68 595.32L622.72 557.82L622.72 482.82zM882.54 332.82L947.49 370.32L947.49 445.32L882.54 482.82L817.58 445.32L817.58 370.32zM817.58 445.32L882.54 482.82L882.54 557.82L817.58 595.32L752.63 557.82L752.63 482.82zM882.54 557.82L947.49 595.32L947.49 670.32L882.54 707.82L817.58 670.32L817.58 595.32zM947.49 -4.68L1012.45 32.82L1012.45 107.82L947.49 145.32L882.54 107.82L882.54 32.82zM1012.45 107.82L1077.4 145.32L1077.4 220.32L1012.45 257.82L947.49 220.32L947.49 145.32zM947.49 220.32L1012.45 257.82L1012.45 332.82L947.49 370.32L882.54 332.82L882.54 257.82zM1012.45 557.82L1077.4 595.32L1077.4 670.32L1012.45 707.82L947.49 670.32L947.49 595.32zM1077.4 445.32L1142.35 482.82L1142.35 557.82L1077.4 595.32L1012.45 557.82L1012.45 482.82zM1142.35 557.82L1207.31 595.32L1207.31 670.32L1142.35 707.82L1077.4 670.32L1077.4 595.32zM1402.17 332.82L1467.12 370.32L1467.12 445.32L1402.17 482.82L1337.22 445.32L1337.22 370.32zM1337.22 445.32L1402.17 482.82L1402.17 557.82L1337.22 595.32L1272.26 557.82L1272.26 482.82zM1402.17 557.82L1467.12 595.32L1467.12 670.32L1402.17 707.82L1337.22 670.32L1337.22 595.32zM1467.12 -4.68L1532.08 32.82L1532.08 107.82L1467.12 145.32L1402.17 107.82L1402.17 32.82zM1467.12 445.32L1532.08 482.82L1532.08 557.82L1467.12 595.32L1402.17 557.82L1402.17 482.82z" stroke="#03305d" stroke-width="2"></path><path d="M95.59 107.82 a7.5 7.5 0 1 0 15 0 a7.5 7.5 0 1 0 -15 0zM160.55 145.32 a7.5 7.5 0 1 0 15 0 a7.5 7.5 0 1 0 -15 0zM160.55 220.32 a7.5 7.5 0 1 0 15 0 a7.5 7.5 0 1 0 -15 0zM95.59 257.82 a7.5 7.5 0 1 0 15 0 a7.5 7.5 0 1 0 -15 0zM30.64 220.32 a7.5 7.5 0 1 0 15 0 a7.5 7.5 0 1 0 -15 0zM30.64 145.32 a7.5 7.5 0 1 0 15 0 a7.5 7.5 0 1 0 -15 0zM30.64 445.32 a7.5 7.5 0 1 0 15 0 a7.5 7.5 0 1 0 -15 0zM95.59 482.82 a7.5 7.5 0 1 0 15 0 a7.5 7.5 0 1 0 -15 0zM95.59 557.82 a7.5 7.5 0 1 0 15 0 a7.5 7.5 0 1 0 -15 0zM30.64 595.32 a7.5 7.5 0 1 0 15 0 a7.5 7.5 0 1 0 -15 0zM-34.31 557.82 a7.5 7.5 0 1 0 15 0 a7.5 7.5 0 1 0 -15 0zM-34.31 482.82 a7.5 7.5 0 1 0 15 0 a7.5 7.5 0 1 0 -15 0zM160.55 -4.68 a7.5 7.5 0 1 0 15 0 a7.5 7.5 0 1 0 -15 0zM225.5 32.82 a7.5 7.5 0 1 0 15 0 a7.5 7.5 0 1 0 -15 0zM225.5 107.82 a7.5 7.5 0 1 0 15 0 a7.5 7.5 0 1 0 -15 0zM95.59 32.82 a7.5 7.5 0 1 0 15 0 a7.5 7.5 0 1 0 -15 0zM290.45 145.32 a7.5 7.5 0 1 0 15 0 a7.5 7.5 0 1 0 -15 0zM290.45 220.32 a7.5 7.5 0 1 0 15 0 a7.5 7.5 0 1 0 -15 0zM225.5 257.82 a7.5 7.5 0 1 0 15 0 a7.5 7.5 0 1 0 -15 0zM225.5 332.82 a7.5 7.5 0 1 0 15 0 a7.5 7.5 0 1 0 -15 0zM160.55 370.32 a7.5 7.5 0 1 0 15 0 a7.5 7.5 0 1 0 -15 0zM95.59 332.82 a7.5 7.5 0 1 0 15 0 a7.5 7.5 0 1 0 -15 0zM355.41 557.82 a7.5 7.5 0 1 0 15 0 a7.5 7.5 0 1 0 -15 0zM420.36 595.32 a7.5 7.5 0 1 0 15 0 a7.5 7.5 0 1 0 -15 0zM420.36 670.32 a7.5 7.5 0 1 0 15 0 a7.5 7.5 0 1 0 -15 0zM355.41 707.82 a7.5 7.5 0 1 0 15 0 a7.5 7.5 0 1 0 -15 0zM290.45 670.32 a7.5 7.5 0 1 0 15 0 a7.5 7.5 0 1 0 -15 0zM290.45 595.32 a7.5 7.5 0 1 0 15 0 a7.5 7.5 0 1 0 -15 0zM420.36 -4.68 a7.5 7.5 0 1 0 15 0 a7.5 7.5 0 1 0 -15 0zM485.32 32.82 a7.5 7.5 0 1 0 15 0 a7.5 7.5 0 1 0 -15 0zM485.32 107.82 a7.5 7.5 0 1 0 15 0 a7.5 7.5 0 1 0 -15 0zM420.36 145.32 a7.5 7.5 0 1 0 15 0 a7.5 7.5 0 1 0 -15 0zM355.41 107.82 a7.5 7.5 0 1 0 15 0 a7.5 7.5 0 1 0 -15 0zM355.41 32.82 a7.5 7.5 0 1 0 15 0 a7.5 7.5 0 1 0 -15 0zM485.32 332.82 a7.5 7.5 0 1 0 15 0 a7.5 7.5 0 1 0 -15 0zM550.27 370.32 a7.5 7.5 0 1 0 15 0 a7.5 7.5 0 1 0 -15 0zM550.27 445.32 a7.5 7.5 0 1 0 15 0 a7.5 7.5 0 1 0 -15 0zM485.32 482.82 a7.5 7.5 0 1 0 15 0 a7.5 7.5 0 1 0 -15 0zM420.36 445.32 a7.5 7.5 0 1 0 15 0 a7.5 7.5 0 1 0 -15 0zM420.36 370.32 a7.5 7.5 0 1 0 15 0 a7.5 7.5 0 1 0 -15 0zM615.22 107.82 a7.5 7.5 0 1 0 15 0 a7.5 7.5 0 1 0 -15 0zM680.18 145.32 a7.5 7.5 0 1 0 15 0 a7.5 7.5 0 1 0 -15 0zM680.18 220.32 a7.5 7.5 0 1 0 15 0 a7.5 7.5 0 1 0 -15 0zM615.22 257.82 a7.5 7.5 0 1 0 15 0 a7.5 7.5 0 1 0 -15 0zM550.27 220.32 a7.5 7.5 0 1 0 15 0 a7.5 7.5 0 1 0 -15 0zM550.27 145.32 a7.5 7.5 0 1 0 15 0 a7.5 7.5 0 1 0 -15 0zM615.22 332.82 a7.5 7.5 0 1 0 15 0 a7.5 7.5 0 1 0 -15 0zM680.18 370.32 a7.5 7.5 0 1 0 15 0 a7.5 7.5 0 1 0 -15 0zM680.18 445.32 a7.5 7.5 0 1 0 15 0 a7.5 7.5 0 1 0 -15 0zM615.22 482.82 a7.5 7.5 0 1 0 15 0 a7.5 7.5 0 1 0 -15 0zM615.22 557.82 a7.5 7.5 0 1 0 15 0 a7.5 7.5 0 1 0 -15 0zM680.18 595.32 a7.5 7.5 0 1 0 15 0 a7.5 7.5 0 1 0 -15 0zM680.18 670.32 a7.5 7.5 0 1 0 15 0 a7.5 7.5 0 1 0 -15 0zM615.22 707.82 a7.5 7.5 0 1 0 15 0 a7.5 7.5 0 1 0 -15 0zM550.27 670.32 a7.5 7.5 0 1 0 15 0 a7.5 7.5 0 1 0 -15 0zM550.27 595.32 a7.5 7.5 0 1 0 15 0 a7.5 7.5 0 1 0 -15 0zM680.18 -4.68 a7.5 7.5 0 1 0 15 0 a7.5 7.5 0 1 0 -15 0zM745.13 32.82 a7.5 7.5 0 1 0 15 0 a7.5 7.5 0 1 0 -15 0zM745.13 107.82 a7.5 7.5 0 1 0 15 0 a7.5 7.5 0 1 0 -15 0zM615.22 32.82 a7.5 7.5 0 1 0 15 0 a7.5 7.5 0 1 0 -15 0zM745.13 257.82 a7.5 7.5 0 1 0 15 0 a7.5 7.5 0 1 0 -15 0zM745.13 332.82 a7.5 7.5 0 1 0 15 0 a7.5 7.5 0 1 0 -15 0zM810.09 370.32 a7.5 7.5 0 1 0 15 0 a7.5 7.5 0 1 0 -15 0zM810.09 445.32 a7.5 7.5 0 1 0 15 0 a7.5 7.5 0 1 0 -15 0zM745.13 482.82 a7.5 7.5 0 1 0 15 0 a7.5 7.5 0 1 0 -15 0zM745.13 557.82 a7.5 7.5 0 1 0 15 0 a7.5 7.5 0 1 0 -15 0zM875.04 332.82 a7.5 7.5 0 1 0 15 0 a7.5 7.5 0 1 0 -15 0zM939.99 370.32 a7.5 7.5 0 1 0 15 0 a7.5 7.5 0 1 0 -15 0zM939.99 445.32 a7.5 7.5 0 1 0 15 0 a7.5 7.5 0 1 0 -15 0zM875.04 482.82 a7.5 7.5 0 1 0 15 0 a7.5 7.5 0 1 0 -15 0zM810.08 445.32 a7.5 7.5 0 1 0 15 0 a7.5 7.5 0 1 0 -15 0zM810.08 370.32 a7.5 7.5 0 1 0 15 0 a7.5 7.5 0 1 0 -15 0zM875.04 557.82 a7.5 7.5 0 1 0 15 0 a7.5 7.5 0 1 0 -15 0zM810.08 595.32 a7.5 7.5 0 1 0 15 0 a7.5 7.5 0 1 0 -15 0zM939.99 595.32 a7.5 7.5 0 1 0 15 0 a7.5 7.5 0 1 0 -15 0zM939.99 670.32 a7.5 7.5 0 1 0 15 0 a7.5 7.5 0 1 0 -15 0zM875.04 707.82 a7.5 7.5 0 1 0 15 0 a7.5 7.5 0 1 0 -15 0zM810.08 670.32 a7.5 7.5 0 1 0 15 0 a7.5 7.5 0 1 0 -15 0zM939.99 -4.68 a7.5 7.5 0 1 0 15 0 a7.5 7.5 0 1 0 -15 0zM1004.95 32.82 a7.5 7.5 0 1 0 15 0 a7.5 7.5 0 1 0 -15 0zM1004.95 107.82 a7.5 7.5 0 1 0 15 0 a7.5 7.5 0 1 0 -15 0zM939.99 145.32 a7.5 7.5 0 1 0 15 0 a7.5 7.5 0 1 0 -15 0zM875.04 107.82 a7.5 7.5 0 1 0 15 0 a7.5 7.5 0 1 0 -15 0zM875.04 32.82 a7.5 7.5 0 1 0 15 0 a7.5 7.5 0 1 0 -15 0zM1069.9 145.32 a7.5 7.5 0 1 0 15 0 a7.5 7.5 0 1 0 -15 0zM1069.9 220.32 a7.5 7.5 0 1 0 15 0 a7.5 7.5 0 1 0 -15 0zM1004.95 257.82 a7.5 7.5 0 1 0 15 0 a7.5 7.5 0 1 0 -15 0zM939.99 220.32 a7.5 7.5 0 1 0 15 0 a7.5 7.5 0 1 0 -15 0zM1004.95 332.82 a7.5 7.5 0 1 0 15 0 a7.5 7.5 0 1 0 -15 0zM875.04 257.82 a7.5 7.5 0 1 0 15 0 a7.5 7.5 0 1 0 -15 0zM1004.95 557.82 a7.5 7.5 0 1 0 15 0 a7.5 7.5 0 1 0 -15 0zM1069.9 595.32 a7.5 7.5 0 1 0 15 0 a7.5 7.5 0 1 0 -15 0zM1069.9 670.32 a7.5 7.5 0 1 0 15 0 a7.5 7.5 0 1 0 -15 0zM1004.95 707.82 a7.5 7.5 0 1 0 15 0 a7.5 7.5 0 1 0 -15 0zM1069.9 445.32 a7.5 7.5 0 1 0 15 0 a7.5 7.5 0 1 0 -15 0zM1134.85 482.82 a7.5 7.5 0 1 0 15 0 a7.5 7.5 0 1 0 -15 0zM1134.85 557.82 a7.5 7.5 0 1 0 15 0 a7.5 7.5 0 1 0 -15 0zM1004.95 482.82 a7.5 7.5 0 1 0 15 0 a7.5 7.5 0 1 0 -15 0zM1199.81 595.32 a7.5 7.5 0 1 0 15 0 a7.5 7.5 0 1 0 -15 0zM1199.81 670.32 a7.5 7.5 0 1 0 15 0 a7.5 7.5 0 1 0 -15 0zM1134.85 707.82 a7.5 7.5 0 1 0 15 0 a7.5 7.5 0 1 0 -15 0zM1394.67 332.82 a7.5 7.5 0 1 0 15 0 a7.5 7.5 0 1 0 -15 0zM1459.62 370.32 a7.5 7.5 0 1 0 15 0 a7.5 7.5 0 1 0 -15 0zM1459.62 445.32 a7.5 7.5 0 1 0 15 0 a7.5 7.5 0 1 0 -15 0zM1394.67 482.82 a7.5 7.5 0 1 0 15 0 a7.5 7.5 0 1 0 -15 0zM1329.72 445.32 a7.5 7.5 0 1 0 15 0 a7.5 7.5 0 1 0 -15 0zM1329.72 370.32 a7.5 7.5 0 1 0 15 0 a7.5 7.5 0 1 0 -15 0zM1394.67 557.82 a7.5 7.5 0 1 0 15 0 a7.5 7.5 0 1 0 -15 0zM1329.72 595.32 a7.5 7.5 0 1 0 15 0 a7.5 7.5 0 1 0 -15 0zM1264.76 557.82 a7.5 7.5 0 1 0 15 0 a7.5 7.5 0 1 0 -15 0zM1264.76 482.82 a7.5 7.5 0 1 0 15 0 a7.5 7.5 0 1 0 -15 0zM1459.62 595.32 a7.5 7.5 0 1 0 15 0 a7.5 7.5 0 1 0 -15 0zM1459.62 670.32 a7.5 7.5 0 1 0 15 0 a7.5 7.5 0 1 0 -15 0zM1394.67 707.82 a7.5 7.5 0 1 0 15 0 a7.5 7.5 0 1 0 -15 0zM1329.72 670.32 a7.5 7.5 0 1 0 15 0 a7.5 7.5 0 1 0 -15 0zM1459.62 -4.68 a7.5 7.5 0 1 0 15 0 a7.5 7.5 0 1 0 -15 0zM1524.58 32.82 a7.5 7.5 0 1 0 15 0 a7.5 7.5 0 1 0 -15 0zM1524.58 107.82 a7.5 7.5 0 1 0 15 0 a7.5 7.5 0 1 0 -15 0zM1459.62 145.32 a7.5 7.5 0 1 0 15 0 a7.5 7.5 0 1 0 -15 0zM1394.67 107.82 a7.5 7.5 0 1 0 15 0 a7.5 7.5 0 1 0 -15 0zM1394.67 32.82 a7.5 7.5 0 1 0 15 0 a7.5 7.5 0 1 0 -15 0zM1524.58 482.82 a7.5 7.5 0 1 0 15 0 a7.5 7.5 0 1 0 -15 0zM1524.58 557.82 a7.5 7.5 0 1 0 15 0 a7.5 7.5 0 1 0 -15 0z" fill="#03305d"></path><path d="M72.25 329.48L111.22 351.98L111.22 396.98L72.25 419.48L33.28 396.98L33.28 351.98zM72.25 464.48L111.22 486.98L111.22 531.98L72.25 554.48L33.28 531.98L33.28 486.98zM189.17 126.98L228.14 149.48L228.14 194.48L189.17 216.98L150.2 194.48L150.2 149.48zM228.14 464.48L267.11 486.98L267.11 531.98L228.14 554.48L189.17 531.98L189.17 486.98zM267.11 -8.02L306.09 14.48L306.09 59.48L267.11 81.98L228.14 59.48L228.14 14.48zM384.03 194.48L423 216.98L423 261.98L384.03 284.48L345.06 261.98L345.06 216.98zM345.06 396.98L384.03 419.48L384.03 464.48L345.06 486.98L306.09 464.48L306.09 419.48zM384.03 464.48L423 486.98L423 531.98L384.03 554.48L345.06 531.98L345.06 486.98zM461.97 329.48L500.95 351.98L500.95 396.98L461.97 419.48L423 396.98L423 351.98zM500.95 -8.02L539.92 14.48L539.92 59.48L500.95 81.98L461.97 59.48L461.97 14.48zM539.92 194.48L578.89 216.98L578.89 261.98L539.92 284.48L500.95 261.98L500.95 216.98zM578.89 261.98L617.86 284.48L617.86 329.48L578.89 351.98L539.92 329.48L539.92 284.48zM578.89 531.98L617.86 554.48L617.86 599.48L578.89 621.98L539.92 599.48L539.92 554.48zM734.78 -8.02L773.75 14.48L773.75 59.48L734.78 81.98L695.81 59.48L695.81 14.48zM734.78 531.98L773.75 554.48L773.75 599.48L734.78 621.98L695.81 599.48L695.81 554.48zM812.73 126.98L851.7 149.48L851.7 194.48L812.73 216.98L773.75 194.48L773.75 149.48zM851.7 464.48L890.67 486.98L890.67 531.98L851.7 554.48L812.73 531.98L812.73 486.98zM929.64 194.48L968.61 216.98L968.61 261.98L929.64 284.48L890.67 261.98L890.67 216.98zM890.67 261.98L929.64 284.48L929.64 329.48L890.67 351.98L851.7 329.48L851.7 284.48zM890.67 396.98L929.64 419.48L929.64 464.48L890.67 486.98L851.7 464.48L851.7 419.48zM1007.59 329.48L1046.56 351.98L1046.56 396.98L1007.59 419.48L968.61 396.98L968.61 351.98zM1085.53 194.48L1124.5 216.98L1124.5 261.98L1085.53 284.48L1046.56 261.98L1046.56 216.98zM1085.53 329.48L1124.5 351.98L1124.5 396.98L1085.53 419.48L1046.56 396.98L1046.56 351.98zM1085.53 464.48L1124.5 486.98L1124.5 531.98L1085.53 554.48L1046.56 531.98L1046.56 486.98zM1280.39 -8.02L1319.36 14.48L1319.36 59.48L1280.39 81.98L1241.42 59.48L1241.42 14.48zM1319.36 194.48L1358.34 216.98L1358.34 261.98L1319.36 284.48L1280.39 261.98L1280.39 216.98zM1319.36 464.48L1358.34 486.98L1358.34 531.98L1319.36 554.48L1280.39 531.98L1280.39 486.98zM1358.34 -8.02L1397.31 14.48L1397.31 59.48L1358.34 81.98L1319.36 59.48L1319.36 14.48zM1475.25 59.48L1514.23 81.98L1514.23 126.98L1475.25 149.48L1436.28 126.98L1436.28 81.98z" stroke="rgba(6, 80, 156, 0.93)" stroke-width="2"></path></g><defs><mask id="SvgjsMask1349"><rect width="1440" height="560" fill="#ffffff"></rect></mask><linearGradient x1="50%" y1="0%" x2="50%" y2="100%" gradientUnits="userSpaceOnUse" id="SvgjsLinearGradient1350"><stop stop-color="#0e2a47" offset="0"></stop><stop stop-color="rgba(14, 42, 77, 1)" offset="1"></stop></linearGradient></defs></svg>